<svg id="b0141d85-54f9-4873-bbf1-3d44e7afd77d" data-name="Ebene 1" xmlns="http://www.w3.org/2000/svg" width="26" height="24" viewBox="0 0 26 24"><title>Datepicker</title><path d="M23,0H3A3.09,3.09,0,0,0,0,3V21a3.09,3.09,0,0,0,3,3H23a3.09,3.09,0,0,0,3-3V3A3.09,3.09,0,0,0,23,0ZM8,2H18V3H8ZM25,21a2.09,2.09,0,0,1-2,2H3a2.09,2.09,0,0,1-2-2V5H25Z" style="fill:#000"/><path d="M7,16.42l1.23-.16A2.71,2.71,0,0,0,9,17.76a1.78,1.78,0,0,0,1.24.46,2,2,0,0,0,1.47-.6,2,2,0,0,0,.6-1.49,1.89,1.89,0,0,0-.55-1.4,1.91,1.91,0,0,0-1.41-.55,3.52,3.52,0,0,0-.87.14l.14-1.08h.2a2.53,2.53,0,0,0,1.42-.41,1.4,1.4,0,0,0,.63-1.26,1.5,1.5,0,0,0-.46-1.12A1.63,1.63,0,0,0,10.17,10a1.68,1.68,0,0,0-1.2.45,2.27,2.27,0,0,0-.62,1.35L7.12,11.6a3.16,3.16,0,0,1,1-1.92,3,3,0,0,1,2-.68,3.28,3.28,0,0,1,1.51.35,2.54,2.54,0,0,1,1.06,1,2.47,2.47,0,0,1,.37,1.29,2.11,2.11,0,0,1-.35,1.18,2.38,2.38,0,0,1-1,.85,2.33,2.33,0,0,1,1.38.85,2.59,2.59,0,0,1,.49,1.62,3,3,0,0,1-1,2.23,3.37,3.37,0,0,1-2.42.91A3.15,3.15,0,0,1,8,18.45,3,3,0,0,1,7,16.42Z" style="fill:#7b808e"/><path d="M19,19.06H17.77V11.22a6.36,6.36,0,0,1-1.17.85,8.24,8.24,0,0,1-1.3.64V11.52a7.44,7.44,0,0,0,1.8-1.18A4.62,4.62,0,0,0,18.21,9H19Z" style="fill:#7b808e"/></svg>